<mxfile host="app.diagrams.net" agent="Mozilla/5.0 (Windows NT 10.0; Win64; x64) AppleWebKit/537.36 (KHTML, like Gecko) Chrome/133.0.0.0 Safari/537.36 Edg/133.0.0.0" version="26.0.16">
  <diagram name="Page-1" id="b5b7bab2-c9e2-2cf4-8b2a-24fd1a2a6d21">
    <mxGraphModel dx="1251" dy="905" grid="1" gridSize="10" guides="1" tooltips="1" connect="1" arrows="1" fold="1" page="1" pageScale="1" pageWidth="827" pageHeight="1169" background="none" math="0" shadow="0">
      <root>
        <mxCell id="0" />
        <mxCell id="1" parent="0" />
        <mxCell id="mI2V97uUVXpobvaI6uUY-56" value="" style="edgeStyle=orthogonalEdgeStyle;rounded=0;orthogonalLoop=1;jettySize=auto;html=1;" edge="1" parent="1" source="mI2V97uUVXpobvaI6uUY-51" target="mI2V97uUVXpobvaI6uUY-55">
          <mxGeometry relative="1" as="geometry" />
        </mxCell>
        <mxCell id="mI2V97uUVXpobvaI6uUY-59" value="contains" style="edgeLabel;html=1;align=center;verticalAlign=middle;resizable=0;points=[];" vertex="1" connectable="0" parent="mI2V97uUVXpobvaI6uUY-56">
          <mxGeometry x="0.0457" y="-1" relative="1" as="geometry">
            <mxPoint y="-1" as="offset" />
          </mxGeometry>
        </mxCell>
        <mxCell id="mI2V97uUVXpobvaI6uUY-51" value="MainActivity" style="swimlane;fontStyle=0;childLayout=stackLayout;horizontal=1;startSize=26;fillColor=none;horizontalStack=0;resizeParent=1;resizeParentMax=0;resizeLast=0;collapsible=1;marginBottom=0;whiteSpace=wrap;html=1;" vertex="1" parent="1">
          <mxGeometry x="1980" y="100" width="140" height="52" as="geometry" />
        </mxCell>
        <mxCell id="mI2V97uUVXpobvaI6uUY-58" value="" style="edgeStyle=orthogonalEdgeStyle;rounded=0;orthogonalLoop=1;jettySize=auto;html=1;" edge="1" parent="1" target="mI2V97uUVXpobvaI6uUY-57">
          <mxGeometry relative="1" as="geometry">
            <mxPoint x="2060" y="303" as="sourcePoint" />
            <Array as="points">
              <mxPoint x="2061" y="303" />
              <mxPoint x="2061" y="353" />
              <mxPoint x="2050" y="353" />
            </Array>
          </mxGeometry>
        </mxCell>
        <mxCell id="mI2V97uUVXpobvaI6uUY-63" value="emits" style="edgeLabel;html=1;align=center;verticalAlign=middle;resizable=0;points=[];" vertex="1" connectable="0" parent="mI2V97uUVXpobvaI6uUY-58">
          <mxGeometry x="-0.2067" y="1" relative="1" as="geometry">
            <mxPoint as="offset" />
          </mxGeometry>
        </mxCell>
        <mxCell id="mI2V97uUVXpobvaI6uUY-95" style="edgeStyle=orthogonalEdgeStyle;rounded=0;orthogonalLoop=1;jettySize=auto;html=1;entryX=0.75;entryY=0;entryDx=0;entryDy=0;exitX=0.25;exitY=0;exitDx=0;exitDy=0;" edge="1" parent="1" source="mI2V97uUVXpobvaI6uUY-55" target="mI2V97uUVXpobvaI6uUY-88">
          <mxGeometry relative="1" as="geometry" />
        </mxCell>
        <mxCell id="mI2V97uUVXpobvaI6uUY-55" value="PlannedSMSViewModel" style="swimlane;fontStyle=0;childLayout=stackLayout;horizontal=1;startSize=26;fillColor=none;horizontalStack=0;resizeParent=1;resizeParentMax=0;resizeLast=0;collapsible=1;marginBottom=0;whiteSpace=wrap;html=1;" vertex="1" parent="1">
          <mxGeometry x="1980" y="251" width="140" height="52" as="geometry" />
        </mxCell>
        <mxCell id="mI2V97uUVXpobvaI6uUY-62" value="" style="edgeStyle=orthogonalEdgeStyle;rounded=0;orthogonalLoop=1;jettySize=auto;html=1;" edge="1" parent="1" source="mI2V97uUVXpobvaI6uUY-57" target="mI2V97uUVXpobvaI6uUY-61">
          <mxGeometry relative="1" as="geometry" />
        </mxCell>
        <mxCell id="mI2V97uUVXpobvaI6uUY-66" value="starts / stops" style="edgeLabel;html=1;align=center;verticalAlign=middle;resizable=0;points=[];" vertex="1" connectable="0" parent="mI2V97uUVXpobvaI6uUY-62">
          <mxGeometry x="0.2292" y="-2" relative="1" as="geometry">
            <mxPoint as="offset" />
          </mxGeometry>
        </mxCell>
        <mxCell id="mI2V97uUVXpobvaI6uUY-85" value="" style="edgeStyle=orthogonalEdgeStyle;rounded=0;orthogonalLoop=1;jettySize=auto;html=1;" edge="1" parent="1" source="mI2V97uUVXpobvaI6uUY-57" target="mI2V97uUVXpobvaI6uUY-84">
          <mxGeometry relative="1" as="geometry" />
        </mxCell>
        <mxCell id="mI2V97uUVXpobvaI6uUY-86" value="uses" style="edgeLabel;html=1;align=center;verticalAlign=middle;resizable=0;points=[];" vertex="1" connectable="0" parent="mI2V97uUVXpobvaI6uUY-85">
          <mxGeometry x="0.1873" y="-4" relative="1" as="geometry">
            <mxPoint as="offset" />
          </mxGeometry>
        </mxCell>
        <mxCell id="mI2V97uUVXpobvaI6uUY-57" value="PlannedSMSEvents" style="swimlane;fontStyle=0;childLayout=stackLayout;horizontal=1;startSize=26;fillColor=none;horizontalStack=0;resizeParent=1;resizeParentMax=0;resizeLast=0;collapsible=1;marginBottom=0;whiteSpace=wrap;html=1;" vertex="1" parent="1">
          <mxGeometry x="1980" y="402" width="140" height="52" as="geometry" />
        </mxCell>
        <mxCell id="mI2V97uUVXpobvaI6uUY-68" value="" style="edgeStyle=orthogonalEdgeStyle;rounded=0;orthogonalLoop=1;jettySize=auto;html=1;exitX=0.75;exitY=1;exitDx=0;exitDy=0;" edge="1" parent="1" source="mI2V97uUVXpobvaI6uUY-61" target="mI2V97uUVXpobvaI6uUY-67">
          <mxGeometry relative="1" as="geometry" />
        </mxCell>
        <mxCell id="mI2V97uUVXpobvaI6uUY-73" value="Notifies" style="edgeLabel;html=1;align=center;verticalAlign=middle;resizable=0;points=[];" vertex="1" connectable="0" parent="mI2V97uUVXpobvaI6uUY-68">
          <mxGeometry x="0.0551" y="1" relative="1" as="geometry">
            <mxPoint as="offset" />
          </mxGeometry>
        </mxCell>
        <mxCell id="mI2V97uUVXpobvaI6uUY-72" value="" style="edgeStyle=orthogonalEdgeStyle;rounded=0;orthogonalLoop=1;jettySize=auto;html=1;exitX=0.25;exitY=1;exitDx=0;exitDy=0;" edge="1" parent="1" source="mI2V97uUVXpobvaI6uUY-61" target="mI2V97uUVXpobvaI6uUY-71">
          <mxGeometry relative="1" as="geometry" />
        </mxCell>
        <mxCell id="mI2V97uUVXpobvaI6uUY-74" value="Executes" style="edgeLabel;html=1;align=center;verticalAlign=middle;resizable=0;points=[];" vertex="1" connectable="0" parent="mI2V97uUVXpobvaI6uUY-72">
          <mxGeometry x="0.1833" y="-1" relative="1" as="geometry">
            <mxPoint as="offset" />
          </mxGeometry>
        </mxCell>
        <mxCell id="mI2V97uUVXpobvaI6uUY-61" value="ForegroundService" style="swimlane;fontStyle=0;childLayout=stackLayout;horizontal=1;startSize=26;fillColor=none;horizontalStack=0;resizeParent=1;resizeParentMax=0;resizeLast=0;collapsible=1;marginBottom=0;whiteSpace=wrap;html=1;" vertex="1" parent="1">
          <mxGeometry x="1980" y="534" width="140" height="52" as="geometry" />
        </mxCell>
        <mxCell id="mI2V97uUVXpobvaI6uUY-67" value="NotificationService" style="swimlane;fontStyle=0;childLayout=stackLayout;horizontal=1;startSize=26;fillColor=none;horizontalStack=0;resizeParent=1;resizeParentMax=0;resizeLast=0;collapsible=1;marginBottom=0;whiteSpace=wrap;html=1;" vertex="1" parent="1">
          <mxGeometry x="2080" y="672" width="140" height="52" as="geometry" />
        </mxCell>
        <mxCell id="mI2V97uUVXpobvaI6uUY-71" value="SMSService" style="swimlane;fontStyle=0;childLayout=stackLayout;horizontal=1;startSize=26;fillColor=none;horizontalStack=0;resizeParent=1;resizeParentMax=0;resizeLast=0;collapsible=1;marginBottom=0;whiteSpace=wrap;html=1;" vertex="1" parent="1">
          <mxGeometry x="1860" y="672" width="140" height="52" as="geometry" />
        </mxCell>
        <mxCell id="mI2V97uUVXpobvaI6uUY-76" style="edgeStyle=orthogonalEdgeStyle;rounded=0;orthogonalLoop=1;jettySize=auto;html=1;entryX=0;entryY=0.25;entryDx=0;entryDy=0;" edge="1" parent="1" source="mI2V97uUVXpobvaI6uUY-75" target="mI2V97uUVXpobvaI6uUY-57">
          <mxGeometry relative="1" as="geometry" />
        </mxCell>
        <mxCell id="mI2V97uUVXpobvaI6uUY-77" value="emits" style="edgeLabel;html=1;align=center;verticalAlign=middle;resizable=0;points=[];" vertex="1" connectable="0" parent="mI2V97uUVXpobvaI6uUY-76">
          <mxGeometry x="0.3013" y="-2" relative="1" as="geometry">
            <mxPoint y="1" as="offset" />
          </mxGeometry>
        </mxCell>
        <mxCell id="mI2V97uUVXpobvaI6uUY-97" style="edgeStyle=orthogonalEdgeStyle;rounded=0;orthogonalLoop=1;jettySize=auto;html=1;entryX=0.75;entryY=0;entryDx=0;entryDy=0;exitX=0.25;exitY=0;exitDx=0;exitDy=0;" edge="1" parent="1" source="mI2V97uUVXpobvaI6uUY-75" target="mI2V97uUVXpobvaI6uUY-88">
          <mxGeometry relative="1" as="geometry" />
        </mxCell>
        <mxCell id="mI2V97uUVXpobvaI6uUY-98" value="contains" style="edgeLabel;html=1;align=center;verticalAlign=middle;resizable=0;points=[];" vertex="1" connectable="0" parent="mI2V97uUVXpobvaI6uUY-97">
          <mxGeometry x="-0.0332" y="6" relative="1" as="geometry">
            <mxPoint as="offset" />
          </mxGeometry>
        </mxCell>
        <mxCell id="mI2V97uUVXpobvaI6uUY-75" value="DetailActivity" style="swimlane;fontStyle=0;childLayout=stackLayout;horizontal=1;startSize=26;fillColor=none;horizontalStack=0;resizeParent=1;resizeParentMax=0;resizeLast=0;collapsible=1;marginBottom=0;whiteSpace=wrap;html=1;" vertex="1" parent="1">
          <mxGeometry x="1760" y="251" width="140" height="52" as="geometry" />
        </mxCell>
        <mxCell id="mI2V97uUVXpobvaI6uUY-82" value="" style="endArrow=classic;startArrow=classic;html=1;rounded=0;entryX=0;entryY=0.5;entryDx=0;entryDy=0;exitX=0.5;exitY=0;exitDx=0;exitDy=0;" edge="1" parent="1" source="mI2V97uUVXpobvaI6uUY-75" target="mI2V97uUVXpobvaI6uUY-51">
          <mxGeometry width="50" height="50" relative="1" as="geometry">
            <mxPoint x="1790" y="180" as="sourcePoint" />
            <mxPoint x="1840" y="130" as="targetPoint" />
            <Array as="points">
              <mxPoint x="1830" y="126" />
            </Array>
          </mxGeometry>
        </mxCell>
        <mxCell id="mI2V97uUVXpobvaI6uUY-83" value="intent" style="edgeLabel;html=1;align=center;verticalAlign=middle;resizable=0;points=[];" vertex="1" connectable="0" parent="mI2V97uUVXpobvaI6uUY-82">
          <mxGeometry x="0.1399" relative="1" as="geometry">
            <mxPoint as="offset" />
          </mxGeometry>
        </mxCell>
        <mxCell id="mI2V97uUVXpobvaI6uUY-89" value="" style="edgeStyle=orthogonalEdgeStyle;rounded=0;orthogonalLoop=1;jettySize=auto;html=1;entryX=0.75;entryY=1;entryDx=0;entryDy=0;" edge="1" parent="1" source="mI2V97uUVXpobvaI6uUY-84" target="mI2V97uUVXpobvaI6uUY-88">
          <mxGeometry relative="1" as="geometry" />
        </mxCell>
        <mxCell id="mI2V97uUVXpobvaI6uUY-90" value="Uses" style="edgeLabel;html=1;align=center;verticalAlign=middle;resizable=0;points=[];" vertex="1" connectable="0" parent="mI2V97uUVXpobvaI6uUY-89">
          <mxGeometry x="-0.0725" y="-4" relative="1" as="geometry">
            <mxPoint x="-1" as="offset" />
          </mxGeometry>
        </mxCell>
        <mxCell id="mI2V97uUVXpobvaI6uUY-92" value="" style="edgeStyle=orthogonalEdgeStyle;rounded=0;orthogonalLoop=1;jettySize=auto;html=1;" edge="1" parent="1" source="mI2V97uUVXpobvaI6uUY-84" target="mI2V97uUVXpobvaI6uUY-91">
          <mxGeometry relative="1" as="geometry" />
        </mxCell>
        <mxCell id="mI2V97uUVXpobvaI6uUY-84" value="DAO" style="swimlane;fontStyle=0;childLayout=stackLayout;horizontal=1;startSize=26;fillColor=none;horizontalStack=0;resizeParent=1;resizeParentMax=0;resizeLast=0;collapsible=1;marginBottom=0;whiteSpace=wrap;html=1;" vertex="1" parent="1">
          <mxGeometry x="1654" y="407" width="140" height="52" as="geometry" />
        </mxCell>
        <mxCell id="mI2V97uUVXpobvaI6uUY-93" style="edgeStyle=orthogonalEdgeStyle;rounded=0;orthogonalLoop=1;jettySize=auto;html=1;entryX=0;entryY=0.5;entryDx=0;entryDy=0;" edge="1" parent="1" source="mI2V97uUVXpobvaI6uUY-88" target="mI2V97uUVXpobvaI6uUY-91">
          <mxGeometry relative="1" as="geometry" />
        </mxCell>
        <mxCell id="mI2V97uUVXpobvaI6uUY-94" value="Entity" style="edgeLabel;html=1;align=center;verticalAlign=middle;resizable=0;points=[];" vertex="1" connectable="0" parent="mI2V97uUVXpobvaI6uUY-93">
          <mxGeometry x="0.2691" y="2" relative="1" as="geometry">
            <mxPoint y="1" as="offset" />
          </mxGeometry>
        </mxCell>
        <mxCell id="mI2V97uUVXpobvaI6uUY-88" value="PlanedSMS" style="swimlane;fontStyle=0;childLayout=stackLayout;horizontal=1;startSize=26;fillColor=none;horizontalStack=0;resizeParent=1;resizeParentMax=0;resizeLast=0;collapsible=1;marginBottom=0;whiteSpace=wrap;html=1;" vertex="1" parent="1">
          <mxGeometry x="1520" y="189" width="140" height="52" as="geometry" />
        </mxCell>
        <mxCell id="mI2V97uUVXpobvaI6uUY-91" value="Repository" style="swimlane;fontStyle=0;childLayout=stackLayout;horizontal=1;startSize=26;fillColor=none;horizontalStack=0;resizeParent=1;resizeParentMax=0;resizeLast=0;collapsible=1;marginBottom=0;whiteSpace=wrap;html=1;" vertex="1" parent="1">
          <mxGeometry x="1654" y="540" width="140" height="52" as="geometry" />
        </mxCell>
      </root>
    </mxGraphModel>
  </diagram>
</mxfile>
